<?xml version="1.0" encoding="UTF-8"?>
<svg id="Capa_1" data-name="Capa 1" xmlns="http://www.w3.org/2000/svg" viewBox="0 0 1666.17 1920.43">
  <defs>
    <style>
      .cls-1 {
        fill: #fbbcad;
        opacity: 0;
      }

      .cls-1, .cls-2 {
        stroke-width: 0px;
      }

      .cls-2 {
        fill: #fbbcad;
      }
    </style>
  </defs>
  <path class="cls-1" d="M686.18,428.23c0,460.68,0,921.36,0,1382.04q0,4.51,4.51,4.51h975.45c-.15.21.35.72-.35.7-.92-.03-1.85,0-2.77,0-324.75,0-649.51,0-974.26.08-2.87,0-3.33-.66-3.33-3.4.08-460.27.07-920.53.11-1380.8,0-1.01-.8-2.35.65-3.12Z"/>
  <path class="cls-2" d="M732.36,860.89c17.23-36.17,28.58-73.51,35.97-112.12,9.56-49.99,12.37-100.75,17.37-151.26,5.06-51.09,12.82-101.78,21.91-152.28,21.03-116.85,50.37-231.84,77.99-347.21,4.4-18.38,8.72-36.79,16.7-54.04,14.76-31.91,37.26-46.4,67.37-43.63,33.79,3.11,56.25,22.21,65.31,55.6,4.55,16.8,6.22,33.99,6.37,51.32.84,97-2.03,193.9-8.88,290.66-6.42,90.66-15.96,180.99-29.17,270.93-4.34,29.57-8.76,59.14-12.75,88.76-1.05,7.81-1.11,15.83.36,23.73,22.65-1.69,41-12.16,57.29-26.64,119.24-105.98,253.89-187.81,398.47-253.92,18.29-8.36,36.72-17.47,57.73-17.42,30.21.07,57.47,19.85,63.61,46.33,3.34,14.38-.39,27.83-6.42,40.65-15.3,32.55-38.18,59.5-64.34,83.6-60.38,55.62-121.24,110.72-181.86,166.08-50.28,45.91-100.51,91.89-150.77,137.83-2.01,1.83-4.11,3.55-6.71,5.79,5,3.32,9.96,3.59,14.52,4.74,118.38,29.97,236.7,60.24,355.26,89.47,34.68,8.55,68.63,18.65,101.23,33.19,11.73,5.23,21.77,12.71,29.15,23.37,14.84,21.44,8.96,48.8-14.34,67.53-20.35,16.36-44.78,20.83-69.66,24.17-14.3,1.92-28.49-.06-42.73-.33-81.54-1.54-163.11-.4-244.63-3.37-61.21-2.23-122.06-7.84-182.69-16.8-45.05-6.66-90.58-8.73-136.69-8.87,2.34,10.14,6.4,19.05,10.14,28.07,17.07,41.17,42.72,77.08,69.37,112.29,68.05,89.92,135.39,180.36,202.33,271.1,7.65,10.37,15.66,20.49,22.18,31.64,11.68,19.98,15.05,40.09-.24,59.84-16.88,21.81-38.15,33.54-66.58,27.18-15.16-3.39-28.57-10.98-41.9-18.52-100.33-56.75-188.1-128.8-262.78-216.67-7.26-8.54-13.28-18.12-19.92-27.19-9.45-12.89-21.76-20.23-38.08-21.3-6.47-.42-7.88,2.13-8.62,7.45-6.51,46.74-15.27,93.07-25.9,139.03-25.35,109.63-59.69,216.29-106.32,318.82-10.55,23.2-35.6,35.69-61.29,30.95-26.72-4.94-46.39-28.06-48.85-54.79-3.97-42.92,2.64-84.76,9.9-126.77,11.21-64.85,21.51-129.87,32.05-194.84,10.01-61.73,19.85-123.48,29.71-185.23.8-4.98,4.11-10.75.57-14.94-6.33-7.49-15.06-11.85-24.93-13.1-6.58-.83-13.25-.43-19.51,1.9-50.1,18.65-102.06,31.12-153.25,46.1-118.71,34.76-237.64,68.8-356.48,103.12-12.66,3.66-25.56,6.24-38.64,7.76-33.9,3.94-58.58-13.81-67.81-48.4-6.82-25.56.98-46.31,20.27-63.56,14.25-12.74,30.83-21.87,47.59-30.61,107.02-55.83,214.15-111.44,321.21-167.19,17.23-8.97,35.98-14.75,52.54-25.12,13.65-8.54,24.98-19.42,34.23-34.11-24.86-4.79-48.92-9.47-73-14.04-84.8-16.09-169.83-31.06-253.85-51.01-22.1-5.25-43.68-12.44-64.98-20.33-26.17-9.69-41.15-34.1-37.77-60.65,3.72-29.23,24.63-50.54,52.8-53.55,16.7-1.78,33.47-.8,50.21-.71,95.83.53,191.66,1.16,287.49,2.11,6.79.07,8.93-2.07,9.7-8.24,2.36-18.83-3.69-35.18-14.32-50.16-33.03-46.55-61.75-95.8-90.15-145.21-34.24-59.59-66.93-120.03-95.95-182.38-4.98-10.71-8.79-21.86-10.46-33.62-4.78-33.6,14.79-53.34,38.72-64.57,23.6-11.08,45.42-4.91,65.97,8.67,8.97,5.92,16.82,13.19,24.26,20.94,121.97,126.92,243.64,254.11,359.15,387.03,1.95,2.25,3.98,4.42,6.27,6.95Z"/>
</svg>